<svg xmlns="http://www.w3.org/2000/svg" version="1.1" viewBox="280.2253521126761 138.242 520.5633802816901 706.758" style="max-height: 500px" width="520.5633802816901" height="706.758">
<g id="#404040ff">
<path d="M 468.71 171.81 C 501.52 148.36 543.49 136.01 583.65 143.22 C 601.62 146.31 618.51 154.28 633.41 164.65 C 647.62 175.38 659.88 188.88 668.56 204.48 C 669.63 206.25 670.76 208.34 673.02 208.73 C 679.71 210.60 686.64 211.86 692.96 214.90 C 710.59 222.27 724.57 236.75 733.55 253.39 C 742.29 269.79 742.68 288.86 742.65 307.00 C 742.64 324.00 742.68 341.00 742.71 358.00 C 742.81 365.14 742.01 372.39 743.91 379.38 C 741.16 380.88 737.97 380.20 735.06 379.73 C 723.55 377.43 713.31 369.42 708.12 358.93 C 704.27 351.22 704.04 342.42 704.23 333.99 C 704.34 325.19 704.37 316.26 701.98 307.71 C 698.50 309.27 695.08 310.96 691.68 312.69 C 649.21 332.12 598.84 331.80 555.86 314.06 C 540.03 307.87 525.57 298.75 511.81 288.90 C 513.99 294.43 516.91 299.64 518.91 305.25 C 520.64 309.76 518.84 315.12 515.01 317.95 C 511.07 321.03 505.75 320.66 501.04 321.05 C 472.40 322.38 443.61 308.81 426.61 285.69 C 421.36 294.44 415.21 302.84 407.01 309.06 C 397.54 316.83 386.07 321.91 374.04 324.11 C 373.83 332.33 374.49 340.59 373.37 348.76 C 370.83 365.41 355.94 379.36 339.03 380.22 C 337.76 380.41 336.91 379.29 335.97 378.68 C 336.80 376.21 337.35 373.64 337.35 371.04 C 337.47 344.01 337.00 316.98 337.43 289.95 C 337.53 276.03 341.75 262.45 348.09 250.17 C 352.67 242.09 358.61 234.75 365.51 228.55 C 375.99 219.96 388.14 212.81 401.57 210.21 C 402.99 209.81 404.52 209.54 405.72 208.62 C 405.94 205.37 403.06 203.01 401.83 200.20 C 399.76 196.94 399.64 191.53 403.69 189.75 C 411.61 186.61 420.34 188.08 428.63 187.64 C 431.68 180.70 433.95 173.06 439.40 167.49 C 441.19 165.66 444.18 166.08 446.42 166.70 C 451.06 169.48 452.80 174.96 456.06 179.01 C 456.71 180.04 458.27 179.60 459.13 179.07 C 462.48 176.88 465.32 173.98 468.71 171.81 Z" opacity="1.00" fill="#404040"/>
<path d="M 434.01 341.03 C 451.78 336.91 470.91 339.50 487.10 347.84 C 502.14 355.86 514.51 368.83 521.66 384.32 C 524.59 390.71 526.25 397.58 527.81 404.41 C 537.35 403.93 546.93 404.68 556.47 404.00 C 558.58 388.58 565.98 374.02 576.91 362.98 C 590.72 348.17 610.76 339.50 630.96 339.11 C 646.79 338.69 662.57 343.48 675.77 352.14 C 690.24 361.95 701.49 376.61 706.58 393.39 C 707.02 394.57 707.26 396.52 709.04 396.21 C 715.02 396.56 721.37 395.38 727.01 398.00 C 732.42 400.99 736.57 406.68 736.75 413.00 C 737.37 419.24 733.88 425.33 728.85 428.81 C 722.92 432.44 715.70 431.53 709.10 431.29 C 707.48 435.79 706.58 440.52 704.75 444.95 C 698.65 460.05 687.95 473.43 674.03 482.01 C 659.56 491.32 641.85 495.33 624.78 493.51 C 607.90 491.89 591.57 484.50 579.44 472.62 C 569.35 463.25 562.08 450.97 558.24 437.78 C 557.58 434.02 553.97 431.89 550.89 430.19 C 543.36 426.72 533.83 428.04 527.70 433.69 C 526.09 435.00 525.79 437.16 525.15 439.01 C 519.30 459.18 504.58 476.57 485.68 485.70 C 473.09 492.37 458.48 494.84 444.35 493.65 C 426.20 492.19 408.91 483.77 395.99 471.03 C 388.61 463.27 382.71 454.11 378.82 444.13 C 377.23 439.95 376.26 435.57 374.82 431.35 C 371.22 431.52 367.61 431.54 364.01 431.48 C 356.77 431.60 349.55 426.80 347.38 419.80 C 344.65 412.26 347.81 402.92 354.79 398.86 C 360.25 395.39 366.93 396.41 373.05 396.28 C 374.71 396.37 376.95 396.31 377.07 394.13 C 380.45 381.74 387.74 370.75 396.50 361.49 C 406.90 351.54 419.86 344.04 434.01 341.03 M 444.36 353.39 C 434.02 354.75 423.72 358.08 415.22 364.24 C 400.91 373.87 391.11 389.72 388.43 406.71 C 386.55 419.32 388.32 432.54 393.97 444.02 C 400.24 457.35 411.47 468.24 424.92 474.23 C 438.67 480.75 454.84 481.62 469.38 477.35 C 485.50 472.63 499.33 460.99 507.18 446.20 C 515.02 431.91 516.60 414.46 512.12 398.86 C 508.38 385.40 499.74 373.61 488.60 365.30 C 476.03 355.97 459.91 351.75 444.36 353.39 M 625.43 353.49 C 612.88 354.77 600.97 360.25 591.38 368.35 C 578.18 379.65 569.94 396.54 569.30 413.91 C 568.83 427.50 572.52 441.37 580.46 452.49 C 590.25 466.95 606.30 477.01 623.63 479.30 C 649.50 483.43 677.23 469.51 688.83 445.93 C 696.57 431.80 698.13 414.61 693.77 399.17 C 689.47 383.71 678.99 370.01 665.09 361.95 C 653.28 354.87 639.10 351.89 625.43 353.49 M 363.47 407.55 C 361.36 409.00 359.25 411.22 359.37 413.96 C 359.38 417.64 362.23 421.19 366.01 421.45 C 368.17 421.22 370.28 420.33 372.02 419.04 C 374.14 415.89 373.96 411.46 371.43 408.59 C 369.21 406.81 366.08 407.08 363.47 407.55 M 716.39 407.51 C 713.23 408.36 712.11 412.03 712.29 414.95 C 712.22 418.49 715.85 420.88 718.98 421.47 C 721.48 421.04 724.70 420.32 725.51 417.52 C 726.57 415.32 726.86 412.65 725.47 410.52 C 723.78 407.27 719.62 406.68 716.39 407.51 Z" opacity="1.00" fill="#404040"/>
<path d="M 603.92 372.24 C 615.46 369.03 628.81 373.39 635.58 383.42 C 641.64 391.25 641.04 401.66 641.00 411.00 C 640.82 420.32 642.09 430.56 636.87 438.85 C 631.43 448.50 619.90 454.22 608.93 452.83 C 598.29 451.78 588.47 444.29 585.06 434.09 C 582.18 425.86 583.61 417.02 583.19 408.50 C 591.58 410.30 600.87 406.89 605.67 399.68 C 611.67 391.56 610.26 379.74 603.92 372.24 Z" opacity="1.00" fill="#404040"/>
<path d="M 462.89 372.33 C 471.60 370.52 481.52 371.56 488.47 377.52 C 494.95 382.60 499.41 390.43 499.59 398.74 C 499.93 406.83 499.68 414.94 499.76 423.03 C 499.80 430.66 497.44 438.50 491.99 444.02 C 485.36 451.85 474.18 454.76 464.34 452.58 C 456.24 450.57 448.94 445.07 445.34 437.47 C 440.62 428.72 442.33 418.46 441.98 408.95 C 447.48 409.70 453.23 409.01 458.01 406.00 C 465.83 401.62 469.73 391.83 467.90 383.18 C 467.03 379.24 464.78 375.83 462.89 372.33 Z" opacity="1.00" fill="#404040"/>
<path d="M 457.22 623.49 C 512.55 623.62 567.88 623.62 623.21 623.49 C 623.60 632.83 623.17 642.17 623.36 651.51 C 634.63 652.20 645.89 654.69 656.05 659.75 C 671.43 666.76 683.98 679.30 691.81 694.20 C 695.93 701.94 698.19 710.46 701.05 718.71 C 705.50 733.57 710.72 748.18 715.17 763.04 C 723.80 790.40 733.08 817.55 741.39 845.00 L 337.48 845.00 C 344.67 822.13 351.87 799.26 359.24 776.45 C 365.17 757.32 371.74 738.40 377.39 719.19 C 380.43 710.28 382.78 700.94 388.00 692.98 C 393.92 683.54 401.72 675.41 410.17 668.19 C 422.89 658.65 438.49 652.57 454.47 652.15 C 456.88 651.93 457.29 649.00 457.32 647.08 C 457.38 639.22 457.11 631.35 457.22 623.49 Z" opacity="1.00" fill="#404040"/>
</g>
<g id="#ffe3d7ff">
<path d="M 407.01 309.06 C 415.21 302.84 421.36 294.44 426.61 285.69 C 443.61 308.81 472.40 322.38 501.04 321.05 C 505.75 320.66 511.07 321.03 515.01 317.95 C 518.84 315.12 520.64 309.76 518.91 305.25 C 516.91 299.64 513.99 294.43 511.81 288.90 C 525.57 298.75 540.03 307.87 555.86 314.06 C 598.84 331.80 649.21 332.12 691.68 312.69 C 695.08 310.96 698.50 309.27 701.98 307.71 C 704.37 316.26 704.34 325.19 704.23 333.99 C 704.04 342.42 704.27 351.22 708.12 358.93 C 713.31 369.42 723.55 377.43 735.06 379.73 C 737.97 380.20 741.16 380.88 743.91 379.38 C 751.08 375.42 759.52 377.85 766.87 379.95 C 774.62 383.19 781.72 388.53 786.35 395.62 C 793.88 406.43 796.11 421.00 791.35 433.38 C 787.49 444.09 778.95 453.01 768.56 457.59 C 760.05 461.30 750.63 461.09 741.58 460.22 C 741.63 476.14 741.55 492.07 741.63 508.00 C 741.37 527.36 743.02 547.27 736.95 565.99 C 731.44 583.61 719.30 598.73 704.08 609.00 C 692.82 616.27 679.88 620.93 666.56 622.48 C 661.04 622.86 655.50 622.47 650.00 623.10 C 641.07 623.54 632.13 622.93 623.21 623.49 C 567.88 623.62 512.55 623.62 457.22 623.49 C 445.49 622.90 433.72 623.67 422.00 622.75 C 395.93 623.30 370.34 609.98 355.12 588.92 C 343.86 574.49 338.85 556.09 338.50 537.99 C 338.12 511.70 338.49 485.41 338.35 459.13 C 331.65 460.24 324.78 461.50 318.03 460.00 C 305.51 458.10 294.08 449.97 288.34 438.66 C 281.85 427.04 281.84 412.34 287.53 400.40 C 295.79 382.88 317.41 373.28 335.97 378.68 C 336.91 379.29 337.76 380.41 339.03 380.22 C 355.94 379.36 370.83 365.41 373.37 348.76 C 374.49 340.59 373.83 332.33 374.04 324.11 C 386.07 321.91 397.54 316.83 407.01 309.06 M 434.01 341.03 C 419.86 344.04 406.90 351.54 396.50 361.49 C 387.74 370.75 380.45 381.74 377.07 394.13 C 376.95 396.31 374.71 396.37 373.05 396.28 C 366.93 396.41 360.25 395.39 354.79 398.86 C 347.81 402.92 344.65 412.26 347.38 419.80 C 349.55 426.80 356.77 431.60 364.01 431.48 C 367.61 431.54 371.22 431.52 374.82 431.35 C 376.26 435.57 377.23 439.95 378.82 444.13 C 382.71 454.11 388.61 463.27 395.99 471.03 C 408.91 483.77 426.20 492.19 444.35 493.65 C 458.48 494.84 473.09 492.37 485.68 485.70 C 504.58 476.57 519.30 459.18 525.15 439.01 C 525.79 437.16 526.09 435.00 527.70 433.69 C 533.83 428.04 543.36 426.72 550.89 430.19 C 553.97 431.89 557.58 434.02 558.24 437.78 C 562.08 450.97 569.35 463.25 579.44 472.62 C 591.57 484.50 607.90 491.89 624.78 493.51 C 641.85 495.33 659.56 491.32 674.03 482.01 C 687.95 473.43 698.65 460.05 704.75 444.95 C 706.58 440.52 707.48 435.79 709.10 431.29 C 715.70 431.53 722.92 432.44 728.85 428.81 C 733.88 425.33 737.37 419.24 736.75 413.00 C 736.57 406.68 732.42 400.99 727.01 398.00 C 721.37 395.38 715.02 396.56 709.04 396.21 C 707.26 396.52 707.02 394.57 706.58 393.39 C 701.49 376.61 690.24 361.95 675.77 352.14 C 662.57 343.48 646.79 338.69 630.96 339.11 C 610.76 339.50 590.72 348.17 576.91 362.98 C 565.98 374.02 558.58 388.58 556.47 404.00 C 546.93 404.68 537.35 403.93 527.81 404.41 C 526.25 397.58 524.59 390.71 521.66 384.32 C 514.51 368.83 502.14 355.86 487.10 347.84 C 470.91 339.50 451.78 336.91 434.01 341.03 M 524.71 475.69 C 522.08 480.64 519.50 486.26 520.84 492.00 C 522.15 499.94 528.28 506.41 535.67 509.21 C 540.62 510.61 546.14 510.13 550.71 507.71 C 558.22 504.05 563.05 495.54 562.61 487.25 C 561.49 480.16 557.40 474.01 554.20 467.72 C 550.04 461.55 546.74 454.62 541.08 449.64 C 535.43 458.20 529.14 466.39 524.71 475.69 M 484.39 492.59 C 481.31 493.38 478.31 494.77 475.94 496.93 C 471.73 501.41 470.67 508.11 472.16 513.95 C 474.70 524.42 481.71 533.34 490.24 539.71 C 500.97 548.08 514.13 554.31 528.00 553.88 C 537.26 554.30 546.71 551.66 554.23 546.21 C 559.83 542.10 563.49 534.31 560.60 527.56 C 558.34 522.59 554.70 517.32 549.03 516.11 C 541.00 514.71 533.91 520.14 526.01 520.18 C 520.71 520.26 515.59 517.85 512.03 513.97 C 505.92 508.24 503.26 499.65 496.44 494.60 C 493.10 491.89 488.44 491.44 484.39 492.59 Z" opacity="1.00" fill="#ffe3d7"/>
</g>
<g id="#ffffffff">
<path d="M 444.36 353.39 C 459.91 351.75 476.03 355.97 488.60 365.30 C 499.74 373.61 508.38 385.40 512.12 398.86 C 516.60 414.46 515.02 431.91 507.18 446.20 C 499.33 460.99 485.50 472.63 469.38 477.35 C 454.84 481.62 438.67 480.75 424.92 474.23 C 411.47 468.24 400.24 457.35 393.97 444.02 C 388.32 432.54 386.55 419.32 388.43 406.71 C 391.11 389.72 400.91 373.87 415.22 364.24 C 423.72 358.08 434.02 354.75 444.36 353.39 M 462.89 372.33 C 464.78 375.83 467.03 379.24 467.90 383.18 C 469.73 391.83 465.83 401.62 458.01 406.00 C 453.23 409.01 447.48 409.70 441.98 408.95 C 442.33 418.46 440.62 428.72 445.34 437.47 C 448.94 445.07 456.24 450.57 464.34 452.58 C 474.18 454.76 485.36 451.85 491.99 444.02 C 497.44 438.50 499.80 430.66 499.76 423.03 C 499.68 414.94 499.93 406.83 499.59 398.74 C 499.41 390.43 494.95 382.60 488.47 377.52 C 481.52 371.56 471.60 370.52 462.89 372.33 Z" opacity="1.00" fill="#ffffff"/>
<path d="M 625.43 353.49 C 639.10 351.89 653.28 354.87 665.09 361.95 C 678.99 370.01 689.47 383.71 693.77 399.17 C 698.13 414.61 696.57 431.80 688.83 445.93 C 677.23 469.51 649.50 483.43 623.63 479.30 C 606.30 477.01 590.25 466.95 580.46 452.49 C 572.52 441.37 568.83 427.50 569.30 413.91 C 569.94 396.54 578.18 379.65 591.38 368.35 C 600.97 360.25 612.88 354.77 625.43 353.49 M 603.92 372.24 C 610.26 379.74 611.67 391.56 605.67 399.68 C 600.87 406.89 591.58 410.30 583.19 408.50 C 583.61 417.02 582.18 425.86 585.06 434.09 C 588.47 444.29 598.29 451.78 608.93 452.83 C 619.90 454.22 631.43 448.50 636.87 438.85 C 642.09 430.56 640.82 420.32 641.00 411.00 C 641.04 401.66 641.64 391.25 635.58 383.42 C 628.81 373.39 615.46 369.03 603.92 372.24 Z" opacity="1.00" fill="#ffffff"/>
</g>
<g id="#f2ab95ff">
<path d="M 363.47 407.55 C 366.08 407.08 369.21 406.81 371.43 408.59 C 373.96 411.46 374.14 415.89 372.02 419.04 C 370.28 420.33 368.17 421.22 366.01 421.45 C 362.23 421.19 359.38 417.64 359.37 413.96 C 359.25 411.22 361.36 409.00 363.47 407.55 Z" opacity="1.00" fill="#f2ab95"/>
<path d="M 716.39 407.51 C 719.62 406.68 723.78 407.27 725.47 410.52 C 726.86 412.65 726.57 415.32 725.51 417.52 C 724.70 420.32 721.48 421.04 718.98 421.47 C 715.85 420.88 712.22 418.49 712.29 414.95 C 712.11 412.03 713.23 408.36 716.39 407.51 Z" opacity="1.00" fill="#f2ab95"/>
<path d="M 524.71 475.69 C 529.14 466.39 535.43 458.20 541.08 449.64 C 546.74 454.62 550.04 461.55 554.20 467.72 C 557.40 474.01 561.49 480.16 562.61 487.25 C 563.05 495.54 558.22 504.05 550.71 507.71 C 546.14 510.13 540.62 510.61 535.67 509.21 C 528.28 506.41 522.15 499.94 520.84 492.00 C 519.50 486.26 522.08 480.64 524.71 475.69 Z" opacity="1.00" fill="#f2ab95"/>
</g>
<g id="#aa3635ff">
<path d="M 484.39 492.59 C 488.44 491.44 493.10 491.89 496.44 494.60 C 503.26 499.65 505.92 508.24 512.03 513.97 C 515.59 517.85 520.71 520.26 526.01 520.18 C 533.91 520.14 541.00 514.71 549.03 516.11 C 554.70 517.32 558.34 522.59 560.60 527.56 C 563.49 534.31 559.83 542.10 554.23 546.21 C 546.71 551.66 537.26 554.30 528.00 553.88 C 514.13 554.31 500.97 548.08 490.24 539.71 C 481.71 533.34 474.70 524.42 472.16 513.95 C 470.67 508.11 471.73 501.41 475.94 496.93 C 478.31 494.77 481.31 493.38 484.39 492.59 Z" opacity="1.00" fill="#aa3635"/>
</g>
</svg>